<?xml version="1.0" ?><svg data-name="Layer 2" id="Layer_2" viewBox="0 0 2010 2010" xmlns="http://www.w3.org/2000/svg" xmlns:xlink="http://www.w3.org/1999/xlink"><defs><style>.cls-1{fill:url(#linear-gradient);}.cls-2{fill:url(#linear-gradient-2);}.cls-3{fill:url(#linear-gradient-3);}.cls-4{fill:url(#linear-gradient-4);}.cls-5{opacity:0.1;fill:url(#linear-gradient-5);}.cls-6{fill:url(#linear-gradient-6);}.cls-7{fill:url(#linear-gradient-7);}.cls-8{fill:url(#linear-gradient-8);}</style><linearGradient gradientUnits="userSpaceOnUse" id="linear-gradient" x1="-157.81" x2="899.16" y1="1287.52" y2="-501.57"><stop offset="0.06" stop-color="#ff6800"/><stop offset="1" stop-color="#fff100"/></linearGradient><linearGradient id="linear-gradient-2" x1="-32.68" x2="1024.29" xlink:href="#linear-gradient" y1="1361.45" y2="-427.64"/><linearGradient id="linear-gradient-3" x1="284.46" x2="1341.42" xlink:href="#linear-gradient" y1="1548.81" y2="-240.28"/><linearGradient gradientUnits="userSpaceOnUse" id="linear-gradient-4" x1="399.7" x2="1872.5" y1="1125.47" y2="1125.47"><stop offset="0" stop-color="#69bbff"/><stop offset="1" stop-color="#9de0f4"/></linearGradient><linearGradient gradientUnits="userSpaceOnUse" id="linear-gradient-5" x1="980.08" x2="1403.97" y1="1763.98" y2="1054.78"><stop offset="0" stop-color="#1e2121"/><stop offset="1" stop-color="#1e2121" stop-opacity="0"/></linearGradient><linearGradient id="linear-gradient-6" x1="-17.58" x2="1039.39" xlink:href="#linear-gradient" y1="1370.37" y2="-418.72"/><linearGradient id="linear-gradient-7" x1="305.86" x2="1362.83" xlink:href="#linear-gradient" y1="1561.45" y2="-227.64"/><linearGradient id="linear-gradient-8" x1="880.48" x2="1229.46" xlink:href="#linear-gradient" y1="1956.77" y2="1381.99"/></defs><path class="cls-1" d="M354,577.61a74.73,74.73,0,0,1-39.59-11.35L244,522.4a75,75,0,0,1,79.32-127.31l70.39,43.85A75,75,0,0,1,354,577.61Z"/><path class="cls-2" d="M212.45,962.44a75,75,0,0,1-16.9-148.08l80.78-18.76a75,75,0,1,1,33.94,146.11l-80.78,18.76A75.06,75.06,0,0,1,212.45,962.44Z"/><path class="cls-3" d="M663.3,1054.6a75,75,0,0,1-29.89-6.21,316.29,316.29,0,1,1,436.22-228.06,75,75,0,0,1-19.16,36.95A387.6,387.6,0,0,0,971,981.15c-1.63,4.06-3.19,8.17-4.8,12.64a75,75,0,0,1-94.57,45.63c-2.81-1-5.67-1.86-8.49-2.68l-.16,0A245.52,245.52,0,0,0,694,1048,75,75,0,0,1,663.3,1054.6Zm332.79-249h0Z"/><path class="cls-4" d="M1830.07,915.43A539.87,539.87,0,0,0,851.85,881a396.68,396.68,0,0,0-58-4.25,394.12,394.12,0,1,0,0,788.23H1333a539.79,539.79,0,0,0,497.11-749.57Z"/><polygon class="cls-5" points="1038.4 1408.44 839.99 1665 1238.5 1665 1250.46 1587.08 1029.56 1605.07 1038.4 1408.44"/><path class="cls-6" d="M655.8,361.74a75,75,0,0,1-73-58.05l-18.76-80.78A75,75,0,0,1,710.16,189l18.76,80.78a75.06,75.06,0,0,1-73.12,92Z"/><path class="cls-7" d="M1021.85,422.49a75,75,0,0,1-63.58-114.67l43.85-70.39a75,75,0,0,1,127.31,79.32l-43.85,70.39A75,75,0,0,1,1021.85,422.49Z"/><path class="cls-8" d="M1051.36,1382.05,911.75,1666.48c-4.41,9,2.82,19.13,13.64,19.13h135.53c8,0,14.65,5.81,14.93,13.13l6.2,167.19c.53,14.39,22.07,18.24,28.55,5.1l139.86-284c4.38-8.89-2.64-19-13.34-19.14l-138.57-2.39c-8-.14-14.46-6-14.64-13.29l-4-165C1079.57,1372.8,1057.85,1368.81,1051.36,1382.05Z"/></svg>